<svg xmlns="http://www.w3.org/2000/svg" width="640" height="640" viewBox="0 0 640 640">
  <defs>
    <linearGradient id="g1" x1="0" x2="1" y1="0" y2="1">
      <stop offset="0" stop-color="#ffd6e7"/>
      <stop offset="1" stop-color="#cfe9ff"/>
    </linearGradient>
  </defs>
  <rect width="100%" height="100%" fill="url(#g1)"/>
  <g transform="translate(320,330)">
    <!-- Body of the sweater -->
    <path d="M-160,-80 q30-120 120-120 q150,0 180,120 v170 q0,35-30,55 q-40,25-150,25 q-110,0-150-25 q-30-20-30-55z"
          fill="#ffe8f2" stroke="#7aa6c9" stroke-width="6"/>
    <!-- Collar -->
    <path d="M-70,-180 h140 q20,0 20,20 v30 q0,20-20,20 h-140 q-20,0-20-20 v-30 q0-20 20-20z"
          fill="#bfe1ff" stroke="#7aa6c9" stroke-width="6"/>
    <!-- Sleeves -->
    <path d="M-160,-60 q-80,20-120,90 q-10,20 10,30 l60,30 q25,12 40-10 q40-70 70-110"
          fill="#ffe8f2" stroke="#7aa6c9" stroke-width="6"/>
    <path d="M160,-60 q80,20 120,90 q10,20-10,30 l-60,30 q-25,12-40-10 q-40-70-70-110"
          fill="#ffe8f2" stroke="#7aa6c9" stroke-width="6"/>
    <!-- Bunny face patch -->
    <g transform="translate(0,10)">
      <ellipse cx="0" cy="40" rx="60" ry="55" fill="#fff" stroke="#ff9ac1" stroke-width="5"/>
      <path d="M-24,0 q-8-50 10-70 q14-16 26,0 q18,22 10,70" fill="#fff" stroke="#ff9ac1" stroke-width="5"/>
      <path d="M24,0 q8-50-10-70 q-14-16-26,0 q-18,22-10,70" fill="#fff" stroke="#ff9ac1" stroke-width="5"/>
      <circle cx="-15" cy="45" r="6" fill="#333"/>
      <circle cx="15" cy="45" r="6" fill="#333"/>
      <path d="M-8,60 q8,10 16,0" stroke="#333" stroke-width="4" fill="none" stroke-linecap="round"/>
      <path d="M-40,90 q40,25 80,0" stroke="#ffb6d6" stroke-width="6" fill="none" stroke-linecap="round"/>
    </g>
    <!-- Hangul text: 귀엽다 (cute) -->
    <text x="0" y="145" font-size="24" text-anchor="middle" fill="#5f90b5" font-family="sans-serif">귀엽다</text>
    <!-- Decorative hearts -->
    <g fill="#ffb6d6">
      <path d="M-120,-140 c-14,-18 -40,-3 -32,16 c6,14 32,28 32,28 s26,-14 32,-28 c8,-19 -18,-34 -32,-16z"/>
      <path d="M170,-130 c-14,-18 -40,-3 -32,16 c6,14 32,28 32,28 s26,-14 32,-28 c8,-19 -18,-34 -32,-16z"/>
    </g>
  </g>
</svg>
