<svg xmlns="http://www.w3.org/2000/svg" width="640" height="640" viewBox="0 0 640 640">
  <rect width="100%" height="100%" fill="#e7f4ff"/>
  <g transform="translate(320,330)">
    <path d="M-160,-70 q40-130 160-130 q160,0 190,130 v170 q0,35-32,55 q-42,25-158,25 q-116,0-158-25 q-32-20-32-55z"
          fill="#ffe6f1" stroke="#7aa6c9" stroke-width="6"/>
    <path d="M-70,-180 h140 q20,0 20,20 v30 q0,20-20,20 h-140 q-20,0-20-20 v-30 q0-20 20-20z"
          fill="#bfe1ff" stroke="#7aa6c9" stroke-width="6"/>
    <!-- Star badge -->
    <g transform="translate(0,20)">
      <circle cx="0" cy="30" r="50" fill="#fff" stroke="#ff9ac1" stroke-width="5"/>
      <path d="M0,-10 l14,28 31,4 -22,22 5,31 -28,-15 -28,15 5-31 -22-22 31-4z"
            fill="#ffd1e5" stroke="#ff9ac1" stroke-width="4"/>
    </g>
    <text x="0" y="150" font-size="22" text-anchor="middle" fill="#6a9fc2" font-family="sans-serif">반짝</text>
  </g>
</svg>
